<?xml version="1.0" encoding="utf-8"?>
<!-- Generator: Adobe Illustrator 19.2.0, SVG Export Plug-In . SVG Version: 6.00 Build 0)  -->
<svg version="1.1" id="Calque_1" xmlns="http://www.w3.org/2000/svg" xmlns:xlink="http://www.w3.org/1999/xlink" x="0px" y="0px"
	 viewBox="0 0 254.9 106.6" style="enable-background:new 0 0 254.9 106.6;" xml:space="preserve">
<style type="text/css">
	.st0{fill:#159133;}
</style>
<g>
	<path class="st0" d="M53.7,106.5c-29.4,0-53.2-23.9-53.2-53.2S24.3,0.1,53.7,0.1c29.4,0,53.2,23.9,53.2,53.2S83,106.5,53.7,106.5z
		 M53.7,10.1c-23.8,0-43.2,19.4-43.2,43.2s19.4,43.2,43.2,43.2c23.8,0,43.2-19.4,43.2-43.2S77.5,10.1,53.7,10.1z"/>
</g>
<g>
	<g>
		
			<rect x="39.5" y="48.5" transform="matrix(0.5828 -0.8126 0.8126 0.5828 -32.5301 62.0574)" class="st0" width="9.3" height="28.4"/>
	</g>
	<g>
		
			<rect x="57.9" y="32.2" transform="matrix(0.8126 0.5828 -0.5828 0.8126 43.4201 -26.2743)" class="st0" width="9.3" height="44.3"/>
	</g>
</g>
<g>
	<path class="st0" d="M126.7,38.7v10.4h0.1c0.7-1.1,1.6-1.8,2.8-2.3c1.2-0.5,2.4-0.7,3.7-0.7c1,0,2.1,0.2,3.1,0.6s1.9,1.1,2.7,2
		s1.5,2,2,3.4c0.5,1.4,0.8,3,0.8,4.9c0,1.9-0.3,3.5-0.8,4.9c-0.5,1.4-1.2,2.5-2,3.4s-1.7,1.5-2.7,2c-1,0.4-2,0.6-3.1,0.6
		c-1.5,0-2.9-0.2-4.1-0.7c-1.2-0.5-2.1-1.3-2.7-2.4h-0.1v2.6H121V38.7H126.7z M135.9,54.4c-0.2-0.8-0.5-1.5-0.9-2.1
		c-0.4-0.6-0.9-1.1-1.5-1.5c-0.6-0.4-1.3-0.5-2.2-0.5c-0.8,0-1.5,0.2-2.2,0.5s-1.1,0.8-1.5,1.5s-0.7,1.3-0.9,2.1
		c-0.2,0.8-0.3,1.6-0.3,2.5c0,0.9,0.1,1.7,0.3,2.5c0.2,0.8,0.5,1.5,0.9,2.1s0.9,1.1,1.5,1.5c0.6,0.4,1.3,0.5,2.2,0.5
		c0.9,0,1.6-0.2,2.2-0.5c0.6-0.4,1.1-0.8,1.5-1.5c0.4-0.6,0.7-1.3,0.9-2.1c0.2-0.8,0.3-1.6,0.3-2.5
		C136.2,56.1,136.1,55.2,135.9,54.4z"/>
	<path class="st0" d="M159.4,67.3v-2.9h-0.1c-0.7,1.2-1.7,2.1-2.8,2.6c-1.1,0.5-2.3,0.8-3.5,0.8c-1.5,0-2.8-0.2-3.7-0.6
		s-1.7-1-2.3-1.7c-0.6-0.7-1-1.6-1.2-2.7c-0.2-1.1-0.3-2.2-0.3-3.5V46.6h5.7v11.7c0,1.7,0.3,3,0.8,3.8c0.5,0.8,1.5,1.3,2.8,1.3
		c1.5,0,2.7-0.5,3.4-1.4s1-2.4,1-4.5V46.6h5.7v20.7H159.4z"/>
	<path class="st0" d="M176.8,73.4c-1.1,0.7-2.6,1.1-4.6,1.1c-0.6,0-1.2,0-1.7-0.1c-0.6,0-1.2-0.1-1.7-0.1v-4.7
		c0.5,0.1,1.1,0.1,1.6,0.2c0.6,0.1,1.1,0.1,1.7,0c0.7-0.1,1.3-0.4,1.7-0.9c0.4-0.5,0.5-1.1,0.5-1.7c0-0.5-0.1-0.9-0.2-1.3l-7.2-19.4
		h6l4.7,14.2h0.1l4.5-14.2h5.9l-8.6,23.2C178.8,71.5,177.9,72.7,176.8,73.4z"/>
</g>
</svg>
