<?xml version="1.0" encoding="utf-8"?>
<!-- Generator: Adobe Illustrator 19.2.0, SVG Export Plug-In . SVG Version: 6.00 Build 0)  -->
<svg version="1.1" id="Calque_1" xmlns="http://www.w3.org/2000/svg" xmlns:xlink="http://www.w3.org/1999/xlink" x="0px" y="0px"
	 viewBox="0 0 254.9 106.5" style="enable-background:new 0 0 254.9 106.5;" xml:space="preserve">
<style type="text/css">
	.st0{fill:#DDB314;}
</style>
<g>
	<path class="st0" d="M53.2,106.5C23.9,106.5,0,82.6,0,53.2C0,23.9,23.9,0,53.2,0c29.4,0,53.2,23.9,53.2,53.2
		C106.5,82.6,82.6,106.5,53.2,106.5z M53.2,10C29.4,10,10,29.4,10,53.2s19.4,43.2,43.2,43.2s43.2-19.4,43.2-43.2S77.1,10,53.2,10z"
		/>
</g>
<g>
	<path class="st0" d="M125.6,45.5v3h0.1c0.8-1.3,1.7-2.2,2.9-2.7c1.2-0.6,2.4-0.9,3.7-0.9c1.6,0,2.9,0.2,3.9,0.6
		c1,0.4,1.8,1,2.4,1.8c0.6,0.8,1,1.7,1.2,2.8c0.2,1.1,0.4,2.3,0.4,3.7v13.3h-6V55c0-1.8-0.3-3.1-0.8-4c-0.6-0.9-1.6-1.3-3-1.3
		c-1.6,0-2.8,0.5-3.5,1.4c-0.7,1-1.1,2.5-1.1,4.8v11.4h-6V45.5H125.6z"/>
	<path class="st0" d="M151.2,62c0.9,0.9,2.2,1.3,3.9,1.3c1.2,0,2.2-0.3,3.1-0.9c0.9-0.6,1.4-1.2,1.6-1.9h5.2
		c-0.8,2.6-2.1,4.5-3.9,5.6c-1.7,1.1-3.8,1.7-6.3,1.7c-1.7,0-3.2-0.3-4.6-0.8c-1.4-0.5-2.5-1.3-3.5-2.3c-0.9-1-1.7-2.2-2.2-3.6
		c-0.5-1.4-0.8-2.9-0.8-4.6c0-1.6,0.3-3.1,0.8-4.5c0.5-1.4,1.3-2.6,2.3-3.6c1-1,2.1-1.8,3.5-2.4c1.4-0.6,2.9-0.9,4.5-0.9
		c1.8,0,3.5,0.4,4.8,1.1c1.4,0.7,2.5,1.7,3.4,2.9c0.9,1.2,1.5,2.6,1.9,4.1c0.4,1.5,0.5,3.1,0.4,4.8h-15.6
		C149.8,59.7,150.3,61.1,151.2,62z M157.9,50.6c-0.7-0.8-1.8-1.2-3.2-1.2c-0.9,0-1.7,0.2-2.4,0.5s-1.1,0.7-1.5,1.2
		c-0.4,0.5-0.6,1-0.8,1.5c-0.2,0.5-0.2,1-0.3,1.4h9.7C159.1,52.5,158.6,51.4,157.9,50.6z"/>
	<path class="st0" d="M183.5,67.2v-3h-0.1c-0.8,1.3-1.7,2.2-2.9,2.7c-1.2,0.6-2.4,0.8-3.7,0.8c-1.6,0-2.9-0.2-3.9-0.6
		c-1-0.4-1.8-1-2.4-1.8c-0.6-0.8-1-1.7-1.2-2.8c-0.2-1.1-0.4-2.3-0.4-3.7V45.5h6v12.2c0,1.8,0.3,3.1,0.8,4c0.6,0.9,1.6,1.3,3,1.3
		c1.6,0,2.8-0.5,3.5-1.4c0.7-1,1.1-2.5,1.1-4.8V45.5h6v21.7H183.5z"/>
	<path class="st0" d="M205.6,45.5v4h-4.4v10.7c0,1,0.2,1.7,0.5,2c0.3,0.3,1,0.5,2,0.5c0.3,0,0.7,0,1,0c0.3,0,0.6-0.1,0.9-0.1v4.6
		c-0.5,0.1-1.1,0.1-1.7,0.2c-0.6,0-1.2,0-1.8,0c-0.9,0-1.8-0.1-2.6-0.2c-0.8-0.1-1.6-0.4-2.2-0.7c-0.6-0.4-1.1-0.9-1.5-1.6
		c-0.4-0.7-0.5-1.6-0.5-2.6V49.5h-3.6v-4h3.6V39h6v6.5H205.6z"/>
	<path class="st0" d="M214.1,45.5v4h0.1c0.3-0.7,0.7-1.3,1.1-1.9c0.5-0.6,1-1.1,1.6-1.5c0.6-0.4,1.3-0.7,2-0.9
		c0.7-0.2,1.4-0.3,2.2-0.3c0.4,0,0.8,0.1,1.3,0.2v5.5c-0.3-0.1-0.6-0.1-1-0.1c-0.4,0-0.8-0.1-1.1-0.1c-1.1,0-2,0.2-2.8,0.5
		c-0.8,0.4-1.4,0.9-1.8,1.5c-0.5,0.6-0.8,1.4-1,2.2s-0.3,1.7-0.3,2.7v9.8h-6V45.5H214.1z"/>
	<path class="st0" d="M225.6,48.7c0.6-0.9,1.4-1.7,2.3-2.2c0.9-0.6,2-1,3.2-1.2c1.2-0.2,2.4-0.4,3.6-0.4c1.1,0,2.2,0.1,3.3,0.2
		c1.1,0.2,2.1,0.5,3.1,0.9c0.9,0.4,1.7,1.1,2.3,1.9c0.6,0.8,0.9,1.9,0.9,3.2v11.3c0,1,0.1,1.9,0.2,2.8c0.1,0.9,0.3,1.6,0.6,2h-6
		c-0.1-0.3-0.2-0.7-0.3-1c-0.1-0.3-0.1-0.7-0.1-1.1c-1,1-2.1,1.7-3.4,2.1s-2.6,0.6-3.9,0.6c-1,0-2-0.1-2.9-0.4s-1.7-0.6-2.3-1.2
		c-0.7-0.5-1.2-1.2-1.6-2c-0.4-0.8-0.6-1.8-0.6-2.9c0-1.2,0.2-2.2,0.6-3c0.4-0.8,1-1.4,1.7-1.9c0.7-0.5,1.5-0.8,2.3-1.1
		c0.9-0.2,1.8-0.4,2.7-0.6c0.9-0.1,1.8-0.3,2.6-0.3c0.9-0.1,1.6-0.2,2.3-0.4c0.7-0.2,1.2-0.4,1.6-0.7c0.4-0.3,0.6-0.8,0.5-1.4
		c0-0.6-0.1-1.2-0.3-1.5c-0.2-0.4-0.5-0.7-0.8-0.9c-0.3-0.2-0.8-0.3-1.2-0.4c-0.5-0.1-1-0.1-1.5-0.1c-1.2,0-2.1,0.3-2.8,0.8
		c-0.7,0.5-1.1,1.3-1.2,2.5h-6C224.6,50.8,224.9,49.6,225.6,48.7z M237.3,57.1c-0.4,0.1-0.8,0.2-1.2,0.3c-0.4,0.1-0.9,0.2-1.4,0.2
		c-0.5,0.1-0.9,0.1-1.4,0.2c-0.4,0.1-0.9,0.2-1.3,0.3c-0.4,0.1-0.8,0.3-1.1,0.6c-0.3,0.2-0.6,0.5-0.8,0.9c-0.2,0.4-0.3,0.8-0.3,1.4
		c0,0.5,0.1,1,0.3,1.3c0.2,0.4,0.5,0.6,0.8,0.9s0.7,0.4,1.2,0.4c0.4,0.1,0.9,0.1,1.4,0.1c1.2,0,2.1-0.2,2.7-0.6
		c0.6-0.4,1.1-0.9,1.4-1.4c0.3-0.5,0.5-1.1,0.6-1.7c0.1-0.6,0.1-1,0.1-1.3v-2.2C238,56.8,237.7,57,237.3,57.1z"/>
	<path class="st0" d="M254.9,37.3v29.9h-6V37.3H254.9z"/>
</g>
<g>
	
		<rect x="49.1" y="26.9" transform="matrix(6.959215e-11 1 -1 6.959215e-11 107.2549 0.7885)" class="st0" width="8.4" height="54.3"/>
</g>
</svg>
