<?xml version="1.0" encoding="utf-8"?>
<!-- Generator: Adobe Illustrator 19.2.0, SVG Export Plug-In . SVG Version: 6.00 Build 0)  -->
<svg version="1.1" id="Calque_1" xmlns="http://www.w3.org/2000/svg" xmlns:xlink="http://www.w3.org/1999/xlink" x="0px" y="0px"
	 viewBox="0 0 254.9 106.6" style="enable-background:new 0 0 254.9 106.6;" xml:space="preserve">
<style type="text/css">
	.st0{fill:#C2000B;}
</style>
<g>
	<g>
		<path class="st0" d="M53.9,106.5c-29.4,0-53.2-23.9-53.2-53.2S24.5,0,53.9,0s53.2,23.9,53.2,53.2S83.2,106.5,53.9,106.5z M53.9,10
			C30,10,10.6,29.4,10.6,53.2S30,96.5,53.9,96.5c23.8,0,43.2-19.4,43.2-43.2S77.7,10,53.9,10z"/>
	</g>
	<g>
		<path class="st0" d="M126.6,62.4c0.3,0.4,0.6,0.8,1,1.1c0.4,0.3,0.9,0.5,1.4,0.6c0.5,0.1,1.1,0.2,1.6,0.2c0.4,0,0.8,0,1.3-0.1
			c0.4-0.1,0.8-0.2,1.2-0.4c0.4-0.2,0.7-0.5,0.9-0.8c0.2-0.3,0.4-0.8,0.4-1.3c0-0.9-0.6-1.5-1.7-1.9c-1.1-0.4-2.7-0.9-4.7-1.3
			c-0.8-0.2-1.6-0.4-2.4-0.7c-0.8-0.3-1.5-0.6-2.1-1c-0.6-0.4-1.1-0.9-1.5-1.6c-0.4-0.6-0.6-1.4-0.6-2.3c0-1.3,0.3-2.4,0.8-3.3
			c0.5-0.9,1.2-1.5,2.1-2c0.9-0.5,1.8-0.8,2.9-1c1.1-0.2,2.2-0.3,3.3-0.3c1.1,0,2.2,0.1,3.3,0.3c1.1,0.2,2,0.6,2.8,1.1
			c0.8,0.5,1.5,1.2,2.1,2c0.5,0.8,0.9,1.9,1,3.2h-5.4c-0.1-1.1-0.5-1.8-1.2-2.2c-0.7-0.4-1.6-0.6-2.6-0.6c-0.3,0-0.7,0-1,0.1
			c-0.4,0-0.7,0.1-1,0.3c-0.3,0.1-0.6,0.3-0.8,0.6c-0.2,0.3-0.3,0.6-0.3,1c0,0.5,0.2,0.9,0.6,1.2c0.4,0.3,0.9,0.6,1.5,0.8
			c0.6,0.2,1.3,0.4,2.1,0.5s1.6,0.3,2.4,0.5c0.8,0.2,1.6,0.4,2.4,0.7c0.8,0.3,1.5,0.6,2.1,1.1c0.6,0.4,1.1,1,1.5,1.6
			c0.4,0.7,0.6,1.5,0.6,2.4c0,1.4-0.3,2.5-0.8,3.4c-0.5,0.9-1.3,1.7-2.1,2.2s-1.9,1-3,1.2c-1.1,0.2-2.3,0.3-3.5,0.3
			c-1.2,0-2.4-0.1-3.5-0.4c-1.1-0.2-2.2-0.6-3.1-1.2s-1.6-1.3-2.2-2.2c-0.6-0.9-0.9-2.1-0.9-3.5h5.4
			C126.3,61.4,126.4,61.9,126.6,62.4z"/>
		<path class="st0" d="M149.4,62.5c0.9,0.8,2.1,1.2,3.7,1.2c1.1,0,2.1-0.3,3-0.9c0.8-0.6,1.3-1.2,1.5-1.8h5c-0.8,2.5-2,4.3-3.7,5.3
			c-1.7,1.1-3.7,1.6-6,1.6c-1.6,0-3.1-0.3-4.4-0.8c-1.3-0.5-2.4-1.3-3.3-2.2c-0.9-1-1.6-2.1-2.1-3.4c-0.5-1.3-0.7-2.8-0.7-4.4
			c0-1.5,0.3-3,0.8-4.3s1.2-2.5,2.2-3.5s2-1.7,3.3-2.3c1.3-0.6,2.7-0.8,4.3-0.8c1.8,0,3.3,0.3,4.6,1c1.3,0.7,2.4,1.6,3.2,2.7
			c0.8,1.1,1.4,2.5,1.8,3.9c0.4,1.5,0.5,3,0.4,4.6H148C148.1,60.4,148.6,61.7,149.4,62.5z M155.8,51.7c-0.7-0.7-1.7-1.1-3.1-1.1
			c-0.9,0-1.7,0.2-2.3,0.5c-0.6,0.3-1.1,0.7-1.4,1.1c-0.4,0.5-0.6,0.9-0.8,1.4c-0.1,0.5-0.2,1-0.3,1.4h9.2
			C157,53.5,156.5,52.4,155.8,51.7z"/>
		<path class="st0" d="M172.1,38.9v28.6h-5.7V38.9H172.1z"/>
		<path class="st0" d="M182.5,38.9v28.6h-5.7V38.9H182.5z"/>
	</g>
	<g>
		<g>
			
				<rect x="48.7" y="26.2" transform="matrix(-0.7071 0.7071 -0.7071 -0.7071 128.0748 53.664)" class="st0" width="8.4" height="54.3"/>
		</g>
		<g>
			
				<rect x="49" y="26" transform="matrix(-0.7071 -0.7071 0.7071 -0.7071 53.2138 128.2613)" class="st0" width="8.4" height="54.3"/>
		</g>
	</g>
</g>
</svg>
